<svg id="Layer_1" data-name="Layer 1" xmlns="http://www.w3.org/2000/svg" viewBox="0 0 84.06 84.52">
  <defs>
    <style>
      .cls-1 {
        fill: #1a1919;
      }

      .cls-2 {
        fill: #21619d;
      }
    </style>
  </defs>
  <title>jquery</title>
  <g>
    <path class="cls-1" d="M330.07,302l4.4,0-8.85,12a5.15,5.15,0,0,0-.71,1,22.32,22.32,0,0,0-.86,3.14l-4,0a16.57,16.57,0,0,0,.6-3.45,13.3,13.3,0,0,0-.86-3.14c-0.3-1.06-.71-3.14-0.71-3.14h4.14l0.57,2.28,6.3-8.73" transform="translate(-250.41 -239.56)"/>
    <path class="cls-1" d="M321.74,304.35c0.81,0.49,1.31,3.19,1.31,3.19s-4.25.06-6.56,0.06h-2l-2.43,10.56h-3.71s2.31-11.48,2.85-13.56c0.18-.67,1.21-0.56,3-0.56H317c1.8,0,3.9-.23,4.79.3m-17.28,5.14a2.22,2.22,0,0,0-.39-1.46c-0.43-.67-0.83-0.83-2-0.86-3.22-.1-3.16,2.29-3.16,2.29Zm3.5-2.74c0.47,1.7-.43,5.71-0.43,5.71s-4.7-.08-7.28,0c-0.8,0-1.76-.09-2,0.29a1.5,1.5,0,0,0,.51,1.67,3.23,3.23,0,0,0,1.63.48,54,54,0,0,0,6.47.07l-0.76,3.36s-6.18.31-9.28-.43a3.15,3.15,0,0,1-1.57-.86c-0.11-.11-0.2-0.27-0.3-0.4a3.75,3.75,0,0,1-.42-0.74c-0.71-1.88.08-5.49,0.86-7.42,0.09-.22.2-0.51,0.32-0.75s0.27-.64.39-0.82,0.18-.2.26-0.32a4.79,4.79,0,0,1,.31-0.39,5.88,5.88,0,0,1,1-.86,9.43,9.43,0,0,1,6.42-1.43,4.9,4.9,0,0,1,3.43,1.57,4.79,4.79,0,0,1,.43,1.28h0Zm-17-2.72,3.6,0s-2,9.51-3,14.15h-4.14c-2.89,0-5.47.36-6.57-1.71s0-5.32.43-7.56c0.34-1.59,1-4.84,1-4.84l3.73,0s-1.05,5.06-1.49,7.59c-0.16.9-.48,1.76-0.14,2.43s0.77,0.68,2.14.71c0.43,0,1.86,0,1.86,0L290.94,304m-16.84,6.85a13.67,13.67,0,0,0,.86-4,3.43,3.43,0,0,0-1.86-2.71,4.75,4.75,0,0,0-4.85,1.14,7.92,7.92,0,0,0-1.71,4.14,6.23,6.23,0,0,0,0,3.71c0.86,1.8,3.54,1.41,6.42,1.43,0.43-1.15.78-2.44,1.14-3.71h0Zm5-5.28c0.41,3-1.17,6.29-2.25,9.16,1.11,0.1,2.08,0,2.15.07s-0.74,3.42-1,3.43c-0.88,0-3.79,0-5,0-4,0-7.67.26-9.56-1.71a6.22,6.22,0,0,1-1.43-3.14,13.32,13.32,0,0,1,.43-4.85,14.69,14.69,0,0,1,1.43-3.71c1.67-2.91,4.56-5.07,9.42-4.57a9,9,0,0,1,3.14,1l0.31,0.23a6.21,6.21,0,0,1,2.4,4.06h0Zm-17.54-1.55c-0.24,1.09-.48,2.33-0.73,3.41h-4c0.31-1.2.55-2.39,0.86-3.43l3.87,0m-4.87,4.41h3.85c-0.5,2.79-1.5,7.29-2.28,10.42-0.49,2-.82,3.39-2.14,4.42-0.12.09-.19,0-0.29,0.14a5.45,5.45,0,0,1-2,.57,28.73,28.73,0,0,1-3.41,0c0.33-1.19.7-2.63,1-3.7,3,0.37,3.12-2.51,3.71-5.28,0.34-1.6,1.37-5.92,1.57-6.57" transform="translate(-250.41 -239.56)"/>
    <g>
      <path class="cls-2" d="M316.24,280l-0.25.64c-4.19,8.16-11.62,13.17-22.22,13.39A31.06,31.06,0,0,1,281,291.46,33,33,0,0,1,265.72,277c-4.38-8.49-5.17-20.3,3.94-29.13,0.14,0-1.11,1.91-1,1.91l-0.25.82c-6.57,20.57,13.67,38.19,33.34,36.18a25.84,25.84,0,0,0,14.46-6.8" transform="translate(-250.41 -239.56)"/>
      <path class="cls-2" d="M304.34,271.47a18.82,18.82,0,0,0,13.18-5.53c-2.68,6.8-10.43,11.17-20.83,9.78-8.71-1.17-17-9.93-17.86-18.71-0.62-6.39,1.6-10.2,5.27-14.83a15.52,15.52,0,0,0-1.87,5.48c-1.39,13.82,11,23.74,22.11,23.81" transform="translate(-250.41 -239.56)"/>
      <path class="cls-2" d="M317,254.3c-0.77,1.76-5.2,5.1-7.16,5.51-7.75,1.65-12.71-2-15.31-6.2a19.15,19.15,0,0,1-1.23-2.76c-1-3.43-.54-8.61,2.46-11.29a14.12,14.12,0,0,0-.56,7.44,16.52,16.52,0,0,0,2,4.48,11.78,11.78,0,0,0,4.68,4.13,12.41,12.41,0,0,0,2.35,1.13c2,0.57,6.07,2.09,12.71-2.43" transform="translate(-250.41 -239.56)"/>
    </g>
  </g>
</svg>
